<svg version="1.1" xmlns="http://www.w3.org/2000/svg" viewBox="0 0 2048 1081">
<path d="M 1623.98 88.5812 C 1627.95 88.1405 1629.26 87.9706 1633.23 88.3429 L 1633.53 89.279 C 1628.12 92.2084 1619.62 93.9763 1613.51 95.8744 C 1598.11 100.656 1585.02 106.638 1571.86 115.772 C 1514.34 155.702 1527.82 234.454 1481.9 283.103 C 1465.4 298.818 1444.03 305.414 1425.04 317.314 C 1401.56 330.487 1445.5 350.218 1456.45 356.81 C 1478.31 369.978 1490.26 384.238 1507.39 403.482 C 1518.6 384.123 1528.14 367.29 1544.93 351.864 C 1551.67 345.661 1558.35 341.008 1564.93 335.177 C 1538.14 319.597 1515.7 288.658 1521.17 259.222 C 1534.65 186.547 1616.01 186.646 1671.01 201.784 C 1712.13 213.1 1749.16 159.753 1778.16 137.105 C 1777.72 138.14 1777.27 139.168 1776.8 140.19 L 1752.33 191.961 C 1742.37 213.071 1726.56 254.154 1703.81 262.775 C 1676.42 273.159 1659.87 232.8 1636.82 223.508 C 1591.4 205.202 1568.24 250.396 1583.84 288.543 C 1598.18 323.296 1628.12 326.984 1657.74 340.067 L 1658.63 340.466 C 1590.75 341.885 1573.29 362.073 1569.04 430.678 C 1567 463.537 1587.57 495.451 1623.96 489.747 C 1653.29 485.149 1670.94 447.242 1687.49 426.23 C 1698.96 411.544 1709.77 398.313 1729.53 395.4 C 1740.47 393.887 1752.09 396.247 1760.77 403.469 C 1796.97 433.568 1800.25 478.803 1790.79 521.218 C 1773.53 598.611 1691.98 584.849 1652.05 640.921 C 1622.6 682.277 1613.53 734.874 1623.36 784.438 C 1627.69 801.4 1635.7 816.606 1638.33 834.098 C 1643.43 856.324 1629.81 895.801 1608.79 907.045 C 1575.87 924.65 1543.94 935.389 1517.46 965.416 C 1505.02 979.525 1497.64 994.325 1486.21 1009.55 C 1490.91 989.698 1498.68 963.122 1509.1 945.615 C 1532.99 905.579 1574.88 872.439 1577.58 822.741 C 1578.69 802.2 1573.22 778.146 1548.16 778.24 C 1522.01 778.339 1495.29 790.457 1476.12 807.715 C 1451.55 829.832 1460.98 860.282 1460.61 888.829 C 1458.91 964.396 1382.74 947.304 1334.82 974.968 C 1295.14 997.878 1268.69 1025.2 1236.2 1056.17 C 1259.15 1018.23 1289.02 982.919 1323.61 955.092 C 1339.93 941.962 1358.36 931.008 1373.02 915.936 C 1389.45 899.034 1408.99 860.351 1408.44 836.18 C 1408.33 831.776 1407.57 826.971 1404.03 823.939 C 1400.23 820.683 1394.76 820.707 1390.04 820.928 C 1343.58 823.109 1318.54 869.629 1290.37 899.967 C 1264.39 927.951 1221.43 948.805 1183.03 950.067 C 1168.1 950.558 1153.52 946.931 1142.5 936.364 C 1129.95 924.336 1124.26 907.024 1122.27 890.167 C 1111.43 798.418 1189.08 758.34 1187.26 699.664 C 1187.06 693.047 1185.04 687.08 1180.06 682.548 C 1174.74 677.706 1168.2 676.328 1161.17 676.835 C 1135.34 678.696 1106.07 704.118 1089.79 722.581 C 1073.97 739.805 1060.46 758.027 1046.45 776.704 C 1050.52 740.511 1061.57 679.112 1079.24 647.503 C 1110.49 592.852 1166.75 637.807 1208.09 648.399 C 1272.11 664.801 1338.52 624.833 1399.49 609.672 C 1405.55 608.164 1412.65 604.924 1418.25 608.144 C 1424.01 614.517 1417.77 625.239 1413.65 631.696 C 1397.45 657.082 1379.01 681.143 1361.91 705.953 C 1340.64 736.819 1320.8 768.526 1298.49 798.674 C 1302.94 785.479 1307.21 772.228 1311.31 758.923 C 1315.35 745.454 1325.54 710.04 1318.49 698.882 C 1307.07 680.797 1256.52 698.928 1243.7 707.505 C 1220.38 723.105 1204.48 750.229 1199.5 776.958 C 1192.68 813.522 1184.16 858.283 1202.78 892.322 C 1206.85 899.276 1215.7 905.471 1223.58 906.455 C 1281.43 913.677 1304.31 844.756 1335.28 810.3 C 1348.78 795.284 1369.39 781.823 1385.12 771.846 C 1427.52 744.968 1400.32 716.967 1407.21 678.609 C 1408.4 671.988 1414.01 657.173 1419.34 652.796 C 1440.5 635.407 1474.11 626.512 1499.14 615.163 C 1514.99 607.978 1523.19 604.293 1537.34 594.94 C 1509.34 633.446 1478.5 666.082 1461.81 711.497 C 1434.79 785.029 1525.4 756.398 1554.54 731.553 C 1588.33 705.792 1560.22 664.532 1572.24 632.489 C 1594.74 572.477 1669.21 583.245 1719.56 575.089 C 1739.34 572.019 1765.45 556.278 1771.35 535.862 C 1786.23 484.317 1759.3 459.825 1709.63 481.739 C 1668.93 499.695 1646.51 525.41 1610.25 547.469 C 1577.44 567.423 1539.8 565.321 1507.4 546.559 C 1452.58 514.262 1455.82 441.878 1427.47 391.299 C 1417.44 373.421 1379.8 335.672 1359.02 350.015 C 1334.52 366.933 1357.63 424.647 1349.62 454.455 C 1346.53 466.253 1339.23 476.51 1329.09 483.285 C 1311.99 494.952 1276.52 502.564 1255.18 512.904 C 1221.24 529.351 1191.45 548.674 1158.93 567.529 C 1174.2 549.811 1197.34 527.893 1214.59 511.649 C 1231.56 495.668 1262.25 474.486 1275.92 456.138 C 1299.67 424.273 1308.48 371.055 1309.7 331.905 C 1310.78 297.312 1300.57 258.186 1308.02 223.715 C 1316.57 184.099 1362.69 177.82 1394.4 162.891 C 1413.14 154.069 1423.88 148.119 1441.66 137.319 C 1407.37 177.657 1364.46 215.132 1350.48 268.226 C 1345.01 288.993 1342.96 309.767 1372.05 306.989 C 1386.57 305.602 1395.97 299.619 1408.51 293.258 C 1471.78 261.164 1438.35 181.517 1475.82 133.887 C 1504.3 98.78 1580.51 92.4863 1623.98 88.5812 z"/>
<path fill-rule="evenodd" d="M 918.491 164.374 C 971.207 158.66 1008.95 181.28 1033.98 226.808 C 1039.34 216.25 1046.3 202.066 1055.2 194.14 C 1109.46 145.823 1200.39 187.035 1242.39 231.77 C 1273.34 264.898 1289.88 308.952 1288.38 354.262 C 1286.94 395.761 1267.21 433.877 1236.78 461.431 C 1197.76 496.765 1157.11 510.424 1105.25 508.338 C 1101.03 508.253 1096.82 507.969 1092.63 507.489 C 1053.38 503.364 1021.63 486.281 996.927 455.742 C 996.301 456.673 995.642 457.582 994.953 458.468 C 973.968 485.726 941.569 503.521 907.572 507.968 C 867.032 512.917 826.182 501.617 793.948 476.539 C 759.86 449.602 737.748 410.326 732.396 367.21 C 724.601 303.442 758.728 238.054 811.443 202.912 C 844.995 180.544 878.724 169.078 918.491 164.374 z M 928.382 209.333 C 928.769 209.272 929.157 209.219 929.546 209.176 C 947.841 207.066 973.537 212.533 988.05 224.22 C 997.748 232.029 1002.51 240.204 1003.97 252.386 C 1009.27 296.368 972.948 316.66 948.427 346.47 C 930.47 368.299 924.587 391.868 932.071 419.429 C 934.938 429.805 938.842 439.902 940.331 450.603 C 943.782 475.398 915.802 481.385 896.791 482.75 C 797.949 471.731 785.275 325.031 838.545 261.067 C 865.93 228.185 886.289 215.586 928.382 209.333 z M 1102.75 207.242 C 1117.1 206.593 1130.19 209.4 1142.99 215.886 C 1206.27 247.959 1224.99 337.858 1194.37 398.4 C 1177.59 431.568 1149.03 453.518 1114.24 465.021 C 1086.16 471.186 1063.78 474.048 1038.28 458.007 C 990.457 427.922 1057.37 401.888 1068.09 371.71 C 1085.58 322.463 1024.08 223.42 1102.75 207.242 z M 1033.24 263.747 C 1040.43 270.642 1045.06 299.887 1045.48 309.695 C 1046.87 342.392 1040.93 378.892 1001.08 381.005 C 1000.42 380.824 999.768 380.631 999.12 380.424 C 964.938 369.471 1011.8 313.149 1020.09 295.906 C 1025.52 284.594 1029.3 275.756 1033.24 263.747 z"/>
<path fill-rule="evenodd" d="M 194.536 161.473 C 199.168 162.785 229.866 183.04 241.411 188.077 C 288.879 208.787 320.045 190.569 364.418 173.43 C 387.477 164.524 412.407 158.083 435.958 168.881 C 450.812 175.691 463.731 189.128 469.264 204.509 C 472.837 214.684 473.782 225.595 472.013 236.232 C 466.102 273.483 441.885 272.754 422.896 297.63 C 421.878 298.963 422.231 302.881 423.337 304.53 C 431.044 313.853 452.22 317.099 463.728 320.505 C 518.071 336.586 539.329 394.068 522.792 445.719 C 512.616 477.503 485.712 502.923 455.944 518.055 C 415.465 538.634 367.493 538.304 324.342 526.583 C 280.909 514.659 223.656 483.909 178.91 506.556 C 136.934 527.8 129.107 591.869 149.889 630.574 C 174.225 675.898 227.449 666.396 269.64 679.018 C 287.925 684.525 306.369 694.152 322.403 704.548 C 359.461 730.92 399.916 771.646 427.828 807.357 C 442.283 825.85 464.27 863.531 475.237 884.093 C 460.961 871.322 428.254 829.817 409.891 831.175 C 406.01 833.257 405.002 835.426 404.705 839.802 C 401.636 885.031 429.238 928.996 479.036 925.186 C 530.615 921.239 573.267 863.103 548.621 814.862 C 531.328 781.012 478.395 771.332 445.428 760.867 C 388.092 743.291 357.179 704.558 375.638 644.219 C 401.691 582.205 468.697 576.328 523.325 602.7 C 574.368 627.341 594.099 611.999 627.977 573.232 C 622.504 598.332 616.513 622.824 609.199 648.07 C 599.072 683.022 572.857 705.982 535.13 688.388 C 504.725 674.209 492.737 628.713 460.989 618.694 C 451.6 615.826 441.455 616.822 432.803 621.461 C 415.413 630.97 409.006 652.974 419.454 669.993 C 441.824 706.433 490.982 704.926 527.553 715.437 C 563.647 725.81 596.342 738.711 615.399 773.121 C 650.981 834.828 619.862 898.719 561.173 930.975 C 516.606 955.469 465.598 959.427 417.034 945.346 C 400.697 940.669 385.633 932.349 372.975 921.01 C 335.443 887.535 335.774 848.045 326.44 802.784 C 318.732 765.402 300.071 723.161 265.908 703.053 C 242.914 689.519 214.965 685.099 189.515 677.868 C 134.934 662.53 113.724 610.407 117.253 557.456 C 118.38 540.673 122.361 524.206 129.026 508.762 C 136.228 491.8 147.181 476.69 161.062 464.57 C 191.448 438.492 248.616 422.49 260.724 375.613 C 281.118 296.654 230.146 225.38 194.536 161.473 z M 367.705 334.248 C 407.676 331.803 438.275 348.412 447.898 389.331 C 453.167 411.59 449.418 435.03 437.467 454.535 C 423.402 477.002 403.977 486.949 379.008 492.71 C 339.509 496.76 305.051 478.551 298.147 437.392 C 288.783 381.563 312.182 344.256 367.705 334.248 z M 382.399 193.171 C 427.283 187.839 430.667 227.348 412.246 257.617 C 396.047 284.235 368.929 298.675 339.309 305.826 C 330.955 307.643 321.798 307.205 313.311 306.902 C 275.401 275.214 324.867 217.002 356.241 202.293 C 366.232 197.609 371.572 195.555 382.399 193.171 z"/>
<path d="M 1085.81 598.082 L 1086.4 598.735 C 1084.18 610.977 1075.59 624.825 1070.89 636.559 C 1054.99 676.215 1038.03 718.773 1033.59 761.551 C 1031.92 777.613 1032.04 793.462 1035.13 809.345 C 1039.84 833.596 1050.47 858.25 1047.98 883.323 C 1046.54 897.768 1039.96 909.862 1028.68 918.975 C 998.955 942.985 947.687 946.782 911.312 942.789 C 887.951 940.225 861.062 932.123 845.937 912.913 C 807.613 864.24 877.938 794.229 883.7 743.561 C 884.833 733.605 885.027 719.405 878.432 711.349 C 875.391 707.634 870.38 704.281 865.511 703.836 C 855.341 702.906 844.659 709.642 837.04 715.821 C 804.114 742.524 783.643 803.179 779.254 844.214 C 765.206 817.053 756.071 788.088 743.827 760.171 C 735.159 740.408 720.79 714.604 699.217 706.537 C 694.406 704.738 689.499 704.74 684.83 706.979 C 678.809 709.867 674.571 715.495 672.557 721.759 C 662.207 753.955 689.262 795.524 703.158 823.348 C 716.033 849.129 725.617 875.376 715.922 903.968 C 705.862 933.636 680.488 955.56 653.088 969.014 C 597.671 996.226 536.14 997.278 478.178 977.431 C 488.417 976.368 498.949 976.397 509.247 975.77 C 544.652 973.285 583.523 967.799 610.966 943.104 C 626.494 929.132 636.848 909.989 643.481 890.403 C 663.71 830.677 641.339 786.849 622.352 731.241 C 616.538 714.212 611.403 697.609 612.383 679.392 C 613.186 664.468 617.969 649.162 629.489 639.002 C 639.243 630.4 651.951 627.43 664.709 628.196 C 703.08 630.498 728.542 662.593 742.177 695.771 C 750.79 716.727 755.981 741.047 771.331 758.326 C 807.774 733.729 811.88 669.761 847.152 641.489 C 864 627.984 883.51 620.302 905.512 622.04 C 914.944 622.785 927.412 629.398 932.562 636.909 C 972.503 702.518 894.53 780.32 888.331 846.682 C 885.304 879.093 902.473 900.46 934.051 903.815 C 947.569 905.251 962.131 900.575 972.271 891.455 C 1014.48 853.389 993.169 789.882 981.372 742.8 C 975.358 718.796 962.532 683.81 980.986 661.493 C 989.498 650.777 1003.83 645.312 1014.38 638.175 C 1033.42 625.293 1069.37 612.071 1085.81 598.082 z"/>
<path fill-rule="evenodd" d="M 630.802 167.372 C 656.771 163.129 690.144 172.112 711.022 187.496 C 759.295 223.066 746.723 286.54 703.292 319.969 C 695.063 326.303 678.02 333.92 672.112 341.767 C 669.41 353.659 691.733 365.946 699.59 373.406 C 724.95 397.482 722.01 433.573 739.776 461.931 C 756.289 488.289 786.055 494.615 814.072 502.104 C 847.725 511.351 885.861 519.263 915.947 537.57 C 880.964 530.269 842.42 520.848 806.833 529.233 C 775.704 536.568 749.17 545.931 717.136 536.175 C 703.764 532.129 691.838 524.321 682.783 513.683 C 644.072 468.812 682.733 427.331 663.416 391.775 C 656.222 378.535 643.872 373.741 630.222 369.724 C 621.874 368.299 608.614 368.578 600.933 371.403 C 562.647 385.485 593.928 439.823 597.511 466.059 C 599.116 477.809 598.594 492.132 592.983 502.075 C 570.081 542.655 510.196 537.088 471.306 547.743 C 446.859 554.442 425.487 564.144 401.979 571.617 C 414.928 562.866 428.151 554.53 441.629 546.62 C 469.691 530.378 500.401 516.825 517.605 487.477 C 542.95 442.865 547.804 381.886 536.103 332.535 C 523.873 280.95 487.894 288.217 448.995 298.903 C 469.403 281.802 498.028 257.462 516.83 239.51 C 560.34 197.968 567.404 175.962 630.802 167.372 z M 627.309 209.301 C 633.237 208.498 641.181 209.059 646.884 210.693 C 656.839 213.514 665.211 220.279 670.059 229.421 C 675.869 240.292 676.221 253.183 672.619 264.805 C 663.544 294.088 629.623 310.299 604.524 323.823 C 595.328 328.574 585.892 334.921 577.113 340.55 C 572.923 285.931 548.922 221.729 627.309 209.301 z"/>
</svg>